<svg width="20" height="20" fill="none" xmlns="http://www.w3.org/2000/svg"><path d="M14.166 9.767v1.9a5.833 5.833 0 0 1-11.667 0v-1.9a.6.6 0 0 1 .6-.6h10.467a.6.6 0 0 1 .6.6ZM10 7.5c0-.833.595-1.667 1.785-1.667v0a2.38 2.38 0 0 0 2.381-2.38v-.536M6.667 7.5v-.417a2.5 2.5 0 0 1 2.5-2.5v0c.92 0 1.667-.746 1.667-1.666V2.5" stroke="#403F3D" stroke-width="1.5" stroke-linecap="round" stroke-linejoin="round"/><path d="M13.334 9.167h2.083a2.083 2.083 0 0 1 0 4.166h-1.25" stroke="#403F3D" stroke-width="1.5" stroke-linecap="round" stroke-linejoin="round"/></svg>