<svg width="690" height="414" fill="none" xmlns="http://www.w3.org/2000/svg"><path d="M476.1 172.5c0 72.405-58.695 131.1-131.1 131.1-72.404 0-131.1-58.695-131.1-131.1S272.596 41.4 345 41.4c72.405 0 131.1 58.695 131.1 131.1Z" fill="#B0907A"/><path d="M660.181 153.81c1.43-.125 2.587.438 3.473 1.691.995 1.242 1.594 3.019 1.796 5.328.346 3.959-.291 7.451-1.91 10.474-2.666 4.998-6.413 9.039-11.241 12.121-4.718 3.072-10.541 4.912-17.47 5.518-10.558.923-19.026-1.494-25.403-7.253-6.387-5.869-10.052-14.192-10.995-24.97-.664-7.589.315-14.767 2.936-21.535 2.613-6.878 6.555-12.487 11.827-16.827 5.382-4.35 11.648-6.837 18.796-7.462 6.379-.559 11.661.919 15.848 4.431 4.176 3.403 6.548 8.348 7.116 14.837.664 7.589-1.513 14.373-6.531 20.353-4.918 5.861-13.781 10.958-26.589 15.293 3.082 4.828 7.757 6.968 14.026 6.419 4.509-.394 8.102-1.761 10.779-4.101 2.787-2.35 5.888-6.167 9.304-11.453 1.176-1.765 2.588-2.72 4.238-2.864ZM630.6 127.307c-4.069.356-7.327 3.024-9.772 8.003-2.336 4.97-3.21 10.809-2.624 17.518l.029.33c6.354-2.108 11.266-4.865 14.736-8.271 3.47-3.407 5.027-7.145 4.671-11.214-.183-2.09-.932-3.687-2.247-4.791-1.216-1.223-2.813-1.748-4.793-1.575Z" fill="#403F3D"/><path d="M574.753 194.198c-10.778.943-19.456-1.346-26.034-6.865-6.478-5.64-10.154-13.463-11.03-23.472-.779-8.908.297-16.871 3.23-23.887 2.932-7.017 7.044-12.585 12.335-16.705 5.292-4.12 11.017-6.45 17.176-6.989 6.049-.529 10.882.877 14.499 4.218 3.717 3.221 5.821 7.636 6.312 13.245.404 4.619-.299 8.614-2.11 11.987-1.701 3.362-4.201 5.188-7.5 5.477-2.09.182-3.838-.163-5.244-1.038-1.296-.884-2.021-2.205-2.175-3.965-.068-.77-.035-1.659.099-2.669a89.82 89.82 0 0 1 .307-2.187c.405-1.698.546-3.262.421-4.692-.126-1.429-.607-2.496-1.444-3.198-.727-.712-1.751-1.011-3.07-.895-2.53.221-4.793 1.583-6.791 4.085-2.007 2.392-3.502 5.57-4.485 9.535-.983 3.965-1.273 8.257-.868 12.876 1.116 12.758 7.228 18.651 18.336 17.679 4.509-.395 9.218-2.303 14.127-5.725 5.01-3.541 9.78-8.557 14.31-15.049 1.185-1.655 2.602-2.555 4.252-2.699 1.429-.125 2.587.439 3.472 1.691.996 1.243 1.594 3.019 1.796 5.328.366 4.18-.381 7.68-2.239 10.503-4.611 6.831-10.392 12.324-17.343 16.478-6.85 4.035-13.63 6.346-20.339 6.933Z" fill="#403F3D"/><path d="M479.882 202.498c-4.179.365-7.341-1.574-9.486-5.82-2.034-4.255-3.475-11.221-4.322-20.899-1.25-14.298-.404-28.058 2.539-41.282.711-3.276 2.104-5.725 4.178-7.347 2.175-1.742 5.297-2.791 9.366-3.147 2.2-.192 3.764-.052 4.692.421.928.473 1.459 1.479 1.594 3.019.154 1.76-.325 5.791-1.436 12.094-.715 4.496-1.258 8.422-1.629 11.779-.371 3.357-.565 7.474-.582 12.352 2.802-9.776 6.198-17.83 10.188-24.164 3.989-6.333 8.018-10.952 12.086-13.857 4.178-2.914 8.081-4.53 11.711-4.848 7.148-.625 11.036 2.636 11.661 9.785.125 1.43-.067 4.937-.576 10.523-.494 4.476-.694 7.264-.598 8.364.337 3.849 1.88 5.654 4.63 5.413 3.079-.269 6.827-3.035 11.243-8.298 1.304-1.555 2.726-2.399 4.266-2.534 1.43-.125 2.587.438 3.473 1.691.985 1.133 1.57 2.744 1.752 4.833.356 4.07-.464 7.355-2.462 9.857-2.8 3.459-6.189 6.526-10.166 9.201-3.877 2.556-8.125 4.036-12.744 4.44-5.829.51-10.413-.585-13.752-3.285-3.23-2.71-5.066-6.594-5.508-11.653a25.2 25.2 0 0 1 .062-4.993c.027-2.218.007-3.713-.06-4.483-.154-1.759-.836-2.586-2.046-2.48-1.649.144-3.685 2.206-6.108 6.186-2.322 3.86-4.538 8.93-6.648 15.21-2.11 6.28-3.697 12.846-4.76 19.699-.757 5.275-1.879 8.92-3.365 10.934-1.386 1.894-3.784 2.99-7.193 3.289Z" fill="#403F3D"/><path d="M408.795 208.717c-4.949.433-9.216-1.465-12.8-5.696-3.483-4.349-5.523-9.934-6.12-16.752-.722-8.249-.831-15.831-.328-22.746.494-7.024 1.669-14.497 3.525-22.417.811-3.395 2.144-5.895 3.998-7.498 1.855-1.603 4.927-2.592 9.216-2.967 2.42-.212 4.103.029 5.05.722 1.057.683 1.653 1.795 1.788 3.334.077.88-.268 3.903-1.035 9.068-.744 4.165-1.302 7.926-1.673 11.283-1.189 11.741-1.615 19.536-1.279 23.385.203 2.309.622 3.935 1.258 4.877.627.832 1.545 1.194 2.755 1.089 1.65-.145 3.54-1.972 5.671-5.483 2.241-3.521 4.443-8.756 6.605-15.706 2.273-6.958 4.301-15.448 6.084-25.467.591-3.376 1.704-5.856 3.339-7.44 1.744-1.593 4.431-2.548 8.06-2.866 2.53-.221 4.318-.045 5.366.528 1.038.463 1.629 1.52 1.773 3.169.241 2.75-.475 10.404-2.147 22.962-1.847 14.347-2.627 23.17-2.338 26.47.183 2.089.767 3.7 1.752 4.833.977 1.023 2.179 1.472 3.609 1.347 2.2-.193 4.669-1.739 7.407-4.638 2.839-3.019 6.524-7.774 11.053-14.266 1.186-1.655 2.603-2.554 4.253-2.699 1.429-.125 2.587.439 3.472 1.691.995 1.243 1.594 3.019 1.796 5.329.385 4.399-.361 7.9-2.239 10.502-4.22 6.243-8.915 11.474-14.087 15.695-5.062 4.211-11.057 6.619-17.986 7.225-5.279.462-9.361-1.231-12.247-5.079-2.775-3.858-4.485-9.471-5.13-16.839-1.215 7.642-3.515 13.661-6.898 18.058-3.393 4.286-7.234 6.617-11.523 6.992Z" fill="#403F3D"/><path d="M397.17 157.87c1.43-.125 2.592.493 3.487 1.856.895 1.362 1.439 3.143 1.631 5.343.462 5.279-.858 8.553-3.961 9.821-6.397 2.887-13.54 4.842-21.43 5.865-1.281 9.421-4.756 17.206-10.424 23.353-5.678 6.038-12.421 9.399-20.229 10.082-6.599.577-12.403-.522-17.411-3.298-4.898-2.785-8.788-6.711-11.669-11.779-2.882-5.067-4.592-10.68-5.131-16.839-.731-8.358.214-15.922 2.836-22.69 2.612-6.877 6.564-12.376 11.855-16.496 5.282-4.23 11.332-6.644 18.151-7.24 8.359-.732 15.322 1.596 20.892 6.982 5.669 5.267 9.314 12.096 10.935 20.488 5.14-.783 11.203-2.421 18.188-4.916.86-.297 1.621-.475 2.28-.532Zm-51.137 38.718c3.52-.308 6.419-2.003 8.699-5.083 2.389-3.091 3.788-7.369 4.196-12.835-3.611-2.011-6.515-4.805-8.712-8.381-2.087-3.585-3.313-7.467-3.679-11.647a28.689 28.689 0 0 1 .033-5.322l-.825.072c-4.399.385-7.896 2.852-10.49 7.401-2.494 4.43-3.404 10.494-2.73 18.192.529 6.049 2.088 10.567 4.676 13.555 2.699 2.977 5.643 4.327 8.832 4.048Z" fill="#403F3D"/><path d="M278.137 223.805c-5.719.501-10.233-.434-13.544-2.804-3.2-2.38-4.945-5.22-5.233-8.519-.251-2.86.578-5.426 2.485-7.698 1.906-2.272 4.894-3.587 8.964-3.943 1.429-.125 3.094-.104 4.992.062l4.498.106c-.361-2.85-1.256-5.487-2.687-7.911-1.321-2.433-2.963-4.728-4.925-6.883-1.971-2.266-3.803-4.211-5.497-5.836-2.842 6.787-5.78 12.474-8.814 17.062a114.099 114.099 0 0 1-9.82 13.16c-1.806 2.153-3.809 3.326-6.009 3.518-1.76.154-3.242-.326-4.448-1.439-1.215-1.224-1.905-2.77-2.068-4.64-.193-2.2.399-4.302 1.775-6.306l1.914-2.827c5.395-8.008 9.42-14.566 12.076-19.675 1.591-3.353 3.42-7.779 5.488-13.28a474.181 474.181 0 0 0 5.965-17.311c1.667-5.022 5.799-7.822 12.398-8.399 3.079-.27 5.248-.182 6.506.262s1.94 1.271 2.046 2.481c.057.659-.071 1.724-.386 3.192a24.003 24.003 0 0 1-1.439 4.448c-1.634 4.132-2.33 7.573-2.089 10.323.144 1.649.853 3.416 2.126 5.299 1.382 1.874 3.414 4.19 6.093 6.948 3.923 4.311 6.909 8.039 8.958 11.185 2.148 3.026 3.391 6.463 3.728 10.312.096 1.1.121 2.65.074 4.648 5.206-2.561 11.044-8.668 17.514-18.321 1.185-1.655 2.602-2.555 4.252-2.7 1.43-.125 2.587.439 3.473 1.691.995 1.243 1.594 3.019 1.796 5.329.365 4.179-.381 7.68-2.24 10.502-4.902 7.3-9.772 12.436-14.61 15.408-4.738 2.853-10.781 4.712-18.13 5.576-4.072 4.124-9.133 6.451-15.182 6.98Z" fill="#403F3D"/><path d="M252.658 184.476c1.43-.125 2.587.439 3.473 1.691.995 1.243 1.594 3.019 1.796 5.329.384 4.399-.362 7.9-2.24 10.502-3.636 5.305-9.011 10.375-16.124 15.208-7.003 4.824-14.739 7.606-23.207 8.347-11.548 1.011-20.786-1.34-27.713-7.05-6.927-5.711-10.867-14.011-11.82-24.899-.664-7.588.315-14.766 2.937-21.534 2.612-6.878 6.554-12.487 11.826-16.827 5.383-4.35 11.648-6.837 18.797-7.463 6.379-.558 11.661.92 15.847 4.432 4.177 3.403 6.549 8.348 7.116 14.837.664 7.589-1.513 14.373-6.531 20.353-4.917 5.861-13.725 10.953-26.424 15.278 3.192 4.819 8.638 6.891 16.336 6.218 4.949-.433 10.409-2.629 16.38-6.587a56.813 56.813 0 0 0 15.299-15.135c1.185-1.656 2.602-2.555 4.252-2.7Zm-43.665-20.283c-4.07.356-7.327 3.023-9.773 8.003-2.335 4.969-3.21 10.809-2.623 17.517l.029.33c6.354-2.107 11.266-4.864 14.736-8.271 3.47-3.406 5.027-7.144 4.671-11.213-.183-2.09-.932-3.687-2.248-4.791-1.215-1.223-2.813-1.748-4.792-1.575Z" fill="#403F3D"/><path d="M191.066 189.865c1.43-.125 2.588.438 3.473 1.691.995 1.243 1.594 3.019 1.796 5.328.375 4.29-.371 7.79-2.24 10.503-4.721 6.84-9.622 12.256-14.703 16.247-5.09 3.881-11.32 6.144-18.689 6.788-7.148.626-13.421-.765-18.817-4.172-5.285-3.416-10.592-9.601-15.919-18.555-4.284-7.161-7.624-12.41-10.022-15.746-2.407-3.447-4.723-5.848-6.947-7.205-2.114-1.367-4.671-2.085-7.669-2.155-.238 2.348-.867 9.717-1.89 22.108-.398 5.576-.654 8.978-.768 10.207-.513 6.805-2.26 12.167-5.242 16.085-2.992 3.808-7.842 6.005-14.55 6.592-7.37.645-14.1-.927-20.195-4.716-5.994-3.909-10.867-9.577-14.62-17.007-3.763-7.539-6.077-16.257-6.943-26.156-1.617-18.476.177-34.702 5.382-48.678 5.315-13.985 13.439-25.002 24.37-33.051 11.033-8.17 24.138-12.917 39.315-14.245 10.559-.924 19.551-.104 26.979 2.46 7.428 2.564 13.092 6.502 16.992 11.812 4.01 5.301 6.323 11.471 6.939 18.51.539 6.159-.417 12.338-2.867 18.536-2.349 6.079-6.241 11.629-11.676 16.648-5.434 5.019-12.234 8.994-20.4 11.925 5.404.968 9.675 2.921 12.814 5.86 3.138 2.94 6.406 7.364 9.805 13.272 3.657 6.33 7.104 10.904 10.343 13.724 3.349 2.81 7.003 4.042 10.962 3.695 3.52-.308 6.773-1.756 9.76-4.344 2.978-2.699 6.636-7.12 10.975-13.262 1.185-1.655 2.603-2.555 4.252-2.699Zm-112.517-5.45c-3.74.328-6.401-.326-7.985-1.961-1.473-1.644-2.306-3.566-2.499-5.765-.23-2.64.411-4.802 1.926-6.486 1.625-1.693 3.537-2.636 5.737-2.829l4.124-.361c.817-10.932 1.654-20.369 2.51-28.313.805-7.273 5.111-11.252 12.92-11.935 6.268-.548 9.648 1.982 10.139 7.591.106 1.21.133 2.149.08 2.819l-2.553 27.818c5.91-.85 11.174-2.751 15.792-5.704 4.728-2.963 8.324-6.823 10.789-11.583 2.575-4.769 3.612-10.013 3.112-15.732-.606-6.928-3.447-12.166-8.523-15.711-5.075-3.546-12.177-4.919-21.305-4.12-10.779.942-20.001 4.464-27.668 10.566-7.567 5.981-13.143 14.448-16.728 25.401-3.595 10.842-4.734 23.797-3.416 38.864.616 7.039 1.86 13.025 3.733 17.959 1.872 4.934 3.964 8.575 6.275 10.921 2.31 2.347 4.4 3.439 6.27 3.275 1.43-.125 2.522-.941 3.277-2.448.865-1.516 1.433-3.893 1.704-7.13l2.289-25.136ZM540.982 372.6v-40.145h26.111v6.096h-18.838v10.899h17.485v6.096h-17.485v10.958h18.994v6.096h-26.267Zm-16.79-29.109c-.183-1.712-.954-3.045-2.313-3.999-1.346-.954-3.097-1.431-5.254-1.431-1.516 0-2.816.229-3.901.686-1.084.457-1.914 1.078-2.489 1.862s-.869 1.679-.882 2.686c0 .836.189 1.561.568 2.176a5.213 5.213 0 0 0 1.588 1.568c.667.418 1.405.771 2.215 1.058a23.7 23.7 0 0 0 2.45.726l3.764.94c1.516.353 2.973.83 4.371 1.431a15.422 15.422 0 0 1 3.784 2.274 10.11 10.11 0 0 1 2.666 3.313c.653 1.294.98 2.81.98 4.548 0 2.352-.601 4.423-1.804 6.214-1.202 1.777-2.94 3.169-5.214 4.175-2.261.993-4.999 1.49-8.213 1.49-3.124 0-5.835-.484-8.135-1.451-2.287-.967-4.078-2.378-5.371-4.234-1.281-1.856-1.974-4.116-2.078-6.782h7.155c.104 1.398.535 2.561 1.293 3.489.758.928 1.745 1.62 2.96 2.078 1.229.457 2.601.686 4.117.686 1.581 0 2.966-.235 4.156-.706 1.202-.483 2.143-1.15 2.822-1.999.68-.863 1.026-1.869 1.039-3.019-.013-1.045-.32-1.908-.921-2.588-.601-.692-1.444-1.267-2.529-1.725-1.071-.47-2.326-.888-3.763-1.254l-4.568-1.176c-3.306-.85-5.92-2.137-7.841-3.862-1.908-1.738-2.862-4.044-2.862-6.919 0-2.366.641-4.437 1.921-6.214 1.294-1.778 3.052-3.156 5.273-4.136 2.222-.994 4.738-1.49 7.547-1.49 2.849 0 5.345.496 7.488 1.49 2.157.98 3.849 2.345 5.077 4.096 1.229 1.738 1.863 3.738 1.902 5.999h-6.998Zm-39.755-11.036h7.273v26.227c0 2.875-.68 5.404-2.039 7.587-1.346 2.182-3.241 3.887-5.684 5.116-2.444 1.215-5.3 1.823-8.567 1.823-3.28 0-6.142-.608-8.585-1.823-2.444-1.229-4.339-2.934-5.685-5.116-1.346-2.183-2.019-4.712-2.019-7.587v-26.227h7.272v25.62c0 1.672.366 3.162 1.098 4.469a7.983 7.983 0 0 0 3.136 3.078c1.346.731 2.941 1.097 4.783 1.097 1.843 0 3.437-.366 4.783-1.097 1.359-.745 2.405-1.771 3.137-3.078.731-1.307 1.097-2.797 1.097-4.469v-25.62Zm-34.942 20.072c0 4.326-.81 8.031-2.431 11.115-1.607 3.071-3.803 5.423-6.586 7.057-2.77 1.633-5.913 2.45-9.429 2.45-3.515 0-6.665-.817-9.448-2.45-2.77-1.647-4.966-4.006-6.586-7.077-1.608-3.084-2.411-6.782-2.411-11.095 0-4.325.803-8.024 2.411-11.095 1.62-3.084 3.816-5.442 6.586-7.076 2.783-1.633 5.933-2.45 9.448-2.45 3.516 0 6.659.817 9.429 2.45 2.783 1.634 4.979 3.992 6.586 7.076 1.621 3.071 2.431 6.77 2.431 11.095Zm-7.312 0c0-3.045-.477-5.612-1.431-7.703-.941-2.104-2.247-3.692-3.92-4.764-1.673-1.084-3.6-1.627-5.783-1.627-2.182 0-4.11.543-5.782 1.627-1.673 1.072-2.986 2.66-3.94 4.764-.941 2.091-1.412 4.658-1.412 7.703s.471 5.62 1.412 7.724c.954 2.091 2.267 3.678 3.94 4.763 1.672 1.072 3.6 1.607 5.782 1.607 2.183 0 4.11-.535 5.783-1.607 1.673-1.085 2.979-2.672 3.92-4.763.954-2.104 1.431-4.679 1.431-7.724ZM369.787 372.6v-40.145h7.273v16.995h18.602v-16.995h7.292V372.6h-7.292v-17.054H377.06V372.6h-7.273Zm-52.742 0v-40.145h26.11v6.096h-18.838v10.899h17.486v6.096h-17.486v10.958h18.995v6.096h-26.267Zm-36.289 0v-40.145h26.11v6.096h-18.838v10.899h17.486v6.096h-17.486v10.958h18.995v6.096h-26.267Zm-35.104 0v-40.145h25.719v6.096h-18.446v10.899h16.681v6.096h-16.681V372.6h-7.273Zm-35.103 0v-40.145h25.718v6.096h-18.446v10.899h16.682v6.096h-16.682V372.6h-7.272Zm-9.636-20.073c0 4.326-.81 8.031-2.431 11.115-1.607 3.071-3.803 5.423-6.586 7.057-2.771 1.633-5.913 2.45-9.429 2.45-3.515 0-6.665-.817-9.448-2.45-2.771-1.647-4.966-4.006-6.586-7.077-1.608-3.084-2.412-6.782-2.412-11.095 0-4.325.804-8.024 2.412-11.095 1.62-3.084 3.815-5.442 6.586-7.076 2.783-1.633 5.933-2.45 9.448-2.45 3.516 0 6.658.817 9.429 2.45 2.783 1.634 4.979 3.992 6.586 7.076 1.621 3.071 2.431 6.77 2.431 11.095Zm-7.312 0c0-3.045-.477-5.612-1.431-7.703-.941-2.104-2.247-3.692-3.92-4.764-1.673-1.084-3.6-1.627-5.783-1.627-2.182 0-4.11.543-5.782 1.627-1.673 1.072-2.987 2.66-3.941 4.764-.94 2.091-1.411 4.658-1.411 7.703s.471 5.62 1.411 7.724c.954 2.091 2.268 3.678 3.941 4.763 1.672 1.072 3.6 1.607 5.782 1.607 2.183 0 4.11-.535 5.783-1.607 1.673-1.085 2.979-2.672 3.92-4.763.954-2.104 1.431-4.679 1.431-7.724ZM155.62 346h-7.331c-.209-1.202-.594-2.268-1.156-3.195a8.595 8.595 0 0 0-2.098-2.392 8.747 8.747 0 0 0-2.862-1.47c-1.058-.34-2.202-.51-3.43-.51-2.183 0-4.117.549-5.802 1.647-1.686 1.085-3.006 2.679-3.96 4.783-.954 2.091-1.431 4.646-1.431 7.664 0 3.071.477 5.659 1.431 7.763.967 2.091 2.287 3.672 3.96 4.744 1.685 1.058 3.613 1.587 5.782 1.587 1.202 0 2.326-.156 3.372-.47a9.243 9.243 0 0 0 2.842-1.431 8.392 8.392 0 0 0 2.137-2.313c.588-.915.993-1.96 1.215-3.136l7.331.039a15.794 15.794 0 0 1-1.783 5.371 15.85 15.85 0 0 1-3.548 4.43c-1.464 1.268-3.176 2.261-5.136 2.979-1.96.706-4.136 1.059-6.528 1.059-3.528 0-6.678-.817-9.448-2.45-2.771-1.634-4.953-3.993-6.547-7.077-1.595-3.084-2.392-6.782-2.392-11.095 0-4.325.804-8.024 2.411-11.095 1.608-3.084 3.797-5.442 6.567-7.076 2.771-1.633 5.907-2.45 9.409-2.45 2.235 0 4.313.313 6.234.941 1.921.627 3.633 1.548 5.136 2.764 1.502 1.202 2.737 2.679 3.704 4.43.98 1.738 1.621 3.724 1.921 5.959Z" fill="#403F3D"/></svg>